# Blender 3.5.0
# www.blender.org
mtllib home1.mtl
o Cube
v 1.000000 1.000000 -3.810553
v 1.000000 -1.000000 -3.810553
v 1.000000 1.000000 1.000000
v 1.000000 -1.000000 1.000000
v -1.000000 1.000000 -3.810553
v -1.000000 -1.000000 -3.810553
v -1.000000 1.000000 1.000000
v -1.000000 -1.000000 1.000000
v 0.000000 1.683374 1.000000
v 1.000000 1.000000 -1.387488
v -1.000000 1.000000 -1.387488
v 0.000000 1.683374 -3.810553
v 0.000000 1.683374 -1.387488
v -1.000000 0.000000 1.000000
v 1.000000 0.000000 1.000000
v 0.000000 -1.000000 1.000000
v 0.333153 -0.967394 1.000000
v 0.333219 -0.960666 1.000000
v 0.353414 -0.960738 1.000000
v 0.353347 -0.967467 1.000000
v 0.336320 -1.000000 0.880070
v 0.337040 -1.000000 0.855322
v 0.357228 -1.000000 0.855588
v 0.356508 -1.000000 0.880336
vn -0.5642 0.8256 -0.0000
vn -0.0000 -0.0000 1.0000
vn -1.0000 -0.0000 -0.0000
vn -0.0000 -1.0000 -0.0000
vn 1.0000 -0.0000 -0.0000
vn -0.0000 -0.0000 -1.0000
vn 0.5642 0.8256 -0.0000
vn 0.0035 0.9650 -0.2623
vn -0.0035 -0.9650 0.2623
vn -0.9995 0.0099 -0.0291
vn 0.9995 -0.0098 0.0291
vt 0.625000 0.500000
vt 0.375000 0.500000
vt 0.625000 0.750000
vt 0.375000 0.750000
vt 0.625000 0.250000
vt 0.875000 0.500000
vt 0.125000 0.500000
vt 0.375000 0.250000
vt 0.875000 0.750000
vt 0.625000 1.000000
vt 0.625000 0.000000
vt 0.375000 1.000000
vt 0.375000 0.000000
vt 0.125000 0.750000
vt 0.625000 0.875000
vt 0.750000 0.750000
vt 0.625000 0.625000
vt 0.625000 0.125000
vt 0.875000 0.625000
vt 0.625000 0.375000
vt 0.750000 0.500000
vt 0.750000 0.625000
vt 0.500000 1.000000
vt 0.500000 0.000000
vt 0.500000 0.750000
vt 0.375000 0.875000
vt 0.250000 0.750000
vt 0.378840 0.833356
vt 0.000000 0.000000
vt 0.379634 0.833348
vt 0.000000 0.000000
vt 0.379626 0.830823
vt 0.000000 0.000000
vt 0.378833 0.830832
vt 0.000000 0.000000
vt 0.292040 0.743767
vt 0.000000 0.000000
vt 0.292130 0.742481
vt 0.000000 0.000000
vt 0.294654 0.742495
vt 0.000000 0.000000
vt 0.294564 0.743781
vt 0.000000 0.000000
s 0
usemtl Material
f 13/22/1 11/19/1 7/9/1 9/16/1
f 17/28/2 16/26/2 4/4/2 20/34/2
f 20/34/2 4/4/2 15/25/2 3/3/2 9/15/2 7/10/2 14/23/2 8/12/2 16/26/2 17/28/2 18/30/2 19/32/2
f 7/11/3 11/18/3 5/5/3 6/8/3 8/13/3 14/24/3
f 16/27/4 8/14/4 6/7/4 2/2/4 4/4/4 24/42/4 23/40/4 22/38/4 21/36/4
f 4/4/4 16/27/4 21/36/4 24/42/4
f 15/25/5 4/4/5 2/2/5 1/1/5 10/17/5 3/3/5
f 12/20/6 1/1/6 2/2/6 6/8/6 5/5/6
f 10/17/7 13/22/7 9/16/7 3/3/7
f 1/1/7 12/21/7 13/22/7 10/17/7
f 12/21/1 5/6/1 11/19/1 13/22/1
f 21/37/8 17/29/8 20/35/8 24/43/8
f 19/33/9 18/31/9 22/39/9 23/41/9
f 19/33/10 23/41/10 24/43/10 20/35/10
f 22/39/11 18/31/11 17/29/11 21/37/11
