# Blender 3.5.0
# www.blender.org
mtllib house1.mtl
o Cube
v 1.000000 1.000000 -3.719295
v 1.000000 -1.000000 -3.719295
v 1.000000 1.000000 1.000000
v 1.000000 -1.000000 1.000000
v -2.133358 1.000000 -3.719295
v -2.133358 -1.000000 -3.719295
v -2.133358 1.000000 1.000000
v -2.133358 -1.000000 1.000000
v -2.133358 -1.000000 -1.372158
v 1.000000 1.000000 -1.372158
v -2.133358 1.000000 -1.372158
v 1.000000 -1.000000 -1.372158
v -0.566679 -1.000000 -3.719295
v -0.566679 1.880612 1.000000
v -0.566679 -1.000000 1.000000
v -0.566679 1.880612 -3.719295
v -0.566679 -1.000000 -1.372158
v -0.566679 1.880612 -1.372158
v -2.133358 -1.000000 -0.283468
v 1.000000 1.000000 -0.283468
v -2.133358 1.000000 -0.283468
v 1.000000 -1.000000 -0.283468
v -0.566679 -1.000000 -0.283468
v -0.566679 1.880612 -0.283468
v 1.000000 0.659322 -1.321769
v 1.000000 -0.992990 -1.321769
v 1.000000 0.659322 -0.333857
v 1.000000 -0.992990 -0.333857
v 1.000000 0.595508 -1.250708
v 1.000000 -0.991221 -1.250708
v 1.000000 0.595508 -0.404918
v 1.000000 -0.991221 -0.404918
v 0.944634 0.595508 -1.250708
v 0.944634 -0.991221 -1.250708
v 0.944634 0.595508 -0.404918
v 0.944634 -0.991221 -0.404918
v 1.000000 0.617199 0.754343
v 1.000000 -0.162953 0.754343
v 1.000000 0.617199 -0.037811
v 1.000000 -0.162953 -0.037811
v 1.000000 0.562907 0.699216
v 1.000000 -0.108661 0.699216
v 1.000000 0.562907 0.017316
v 1.000000 -0.108661 0.017316
v 0.982971 0.562907 0.699216
v 0.982971 -0.108661 0.699216
v 0.982971 0.562907 0.017316
v 0.982971 -0.108661 0.017316
v 0.982971 0.227123 0.699216
v 0.982971 0.562907 0.358266
v 0.982971 -0.108661 0.358266
v 0.982971 0.227123 0.017316
v 0.982971 0.227123 0.358266
v 1.000000 0.847917 -3.540815
v 1.000000 -0.276351 -3.540815
v 1.000000 0.847917 -1.550638
v 1.000000 -0.276351 -1.550638
v 1.000000 0.759515 -3.384326
v 1.000000 -0.187949 -3.384326
v 1.000000 0.759515 -1.707127
v 1.000000 -0.187949 -1.707127
v 0.971138 0.759515 -3.384326
v 0.971138 -0.187949 -3.384326
v 0.971138 0.759515 -1.707127
v 0.971138 -0.187949 -1.707127
v 1.000000 1.046480 1.000000
v -2.133358 1.046480 1.000000
v -0.566679 1.927091 1.000000
v 1.000000 1.046480 1.110318
v -2.133358 1.046480 1.110318
v -0.566679 1.927091 1.110318
v 1.000000 1.046480 -3.716592
v -2.133358 1.046480 -3.716592
v -0.566679 1.927091 -3.716592
v 1.000000 1.046943 -3.719295
v -2.133358 1.046943 -3.719295
v -0.566679 1.927555 -3.719295
v 1.000000 1.046943 -3.831016
v -2.133358 1.046943 -3.831016
v -0.566679 1.927555 -3.831016
v 1.000000 1.046480 -1.374731
v -0.566679 1.927091 -1.374731
v -2.133358 1.046480 -1.248901
v 1.000000 1.125977 -1.374731
v -0.566679 2.006589 -1.374731
v -2.094246 1.125977 -1.256314
v 1.000000 1.125977 -1.266071
v -0.566679 2.006589 -1.266071
v -2.094246 1.125977 -1.147654
v 1.000000 1.125977 -1.482708
v -0.566679 2.006589 -1.482708
v -2.094246 1.125977 -1.364291
v 1.000000 1.001220 -1.266071
v 1.000000 1.001220 -1.482708
v 1.000000 1.002059 -1.266071
v -0.566679 1.882670 -1.266071
v -2.094246 1.002059 -1.147654
v 1.000000 1.003562 -1.482708
v -0.566679 1.884174 -1.482708
v -2.094246 1.003562 -1.364291
vn -0.4900 0.8717 -0.0000
vn -0.0000 -0.0000 1.0000
vn -1.0000 -0.0000 -0.0000
vn -0.0000 -1.0000 -0.0000
vn 1.0000 -0.0000 -0.0000
vn -0.0000 -0.0000 -1.0000
vn 0.4900 0.8717 -0.0000
vn -0.0000 1.0000 -0.0000
vn 0.4900 -0.8717 -0.0000
vn -0.0608 -0.0316 -0.9977
vn -0.4900 -0.8717 -0.0000
vn -0.4994 0.8664 -0.0000
vn 0.0773 -0.0000 0.9970
vn -0.0773 -0.0000 -0.9970
vt 0.625000 0.500000
vt 0.000000 0.000000
vt 0.375000 0.500000
vt 0.625000 0.750000
vt 0.375000 0.750000
vt 0.625000 0.250000
vt 0.875000 0.500000
vt 0.125000 0.500000
vt 0.375000 0.250000
vt 0.625000 1.000000
vt 0.625000 0.000000
vt 0.875000 0.750000
vt 0.375000 1.000000
vt 0.125000 0.750000
vt 0.375000 0.000000
vt 0.375000 0.125663
vt 0.125000 0.624337
vt 0.625000 0.624337
vt 0.625000 0.125663
vt 0.875000 0.624337
vt 0.375000 0.624337
vt 0.250000 0.500000
vt 0.375000 0.375000
vt 0.625000 0.875000
vt 0.750000 0.750000
vt 0.250000 0.750000
vt 0.375000 0.875000
vt 0.750000 0.500000
vt 0.625000 0.375000
vt 0.250000 0.624337
vt 0.750000 0.624337
vt 0.125000 0.682009
vt 0.375000 0.067990
vt 0.625000 0.682010
vt 0.625000 0.067990
vt 0.875000 0.682010
vt 0.375000 0.682010
vt 0.250000 0.682010
vt 0.750000 0.682010
vt 0.625000 0.624337
vt 0.375000 0.624337
vt 0.625000 0.682010
vt 0.375000 0.682010
vt 0.625000 0.624337
vt 0.375000 0.624337
vt 0.625000 0.682010
vt 0.375000 0.682010
vt 0.625000 0.624337
vt 0.375000 0.624337
vt 0.625000 0.682010
vt 0.375000 0.682010
vt 0.625000 0.750000
vt 0.375000 0.750000
vt 0.625000 0.682010
vt 0.375000 0.682010
vt 0.625000 0.750000
vt 0.375000 0.750000
vt 0.625000 0.682010
vt 0.375000 0.682010
vt 0.625000 0.750000
vt 0.375000 0.750000
vt 0.625000 0.682010
vt 0.375000 0.682010
vt 0.500000 0.750000
vt 0.625000 0.716005
vt 0.375000 0.716005
vt 0.500000 0.682010
vt 0.500000 0.716005
vt 0.625000 0.500000
vt 0.375000 0.500000
vt 0.625000 0.624337
vt 0.375000 0.624337
vt 0.625000 0.500000
vt 0.375000 0.500000
vt 0.625000 0.624337
vt 0.375000 0.624337
vt 0.625000 0.500000
vt 0.375000 0.500000
vt 0.625000 0.624337
vt 0.375000 0.624337
vt 0.625000 0.750000
vt 0.875000 0.750000
vt 0.750000 0.750000
vt 0.625000 0.875000
vt 0.625000 0.750000
vt 0.875000 0.750000
vt 0.625000 0.875000
vt 0.750000 0.750000
vt 0.625000 0.750000
vt 0.000000 0.000000
vt 0.875000 0.750000
vt 0.625000 0.875000
vt 0.750000 0.750000
vt 0.625000 0.500000
vt 0.875000 0.500000
vt 0.750000 0.500000
vt 0.625000 0.375000
vt 0.625000 0.500000
vt 0.875000 0.500000
vt 0.750000 0.500000
vt 0.625000 0.375000
vt 0.625000 0.750000
vt 0.625000 0.875000
vt 0.750000 0.750000
vt 0.875000 0.750000
vt 0.625000 0.750000
vt 0.625000 0.875000
vt 0.750000 0.750000
vt 0.875000 0.750000
vt 0.000000 0.000000
vt 0.625000 0.750000
vt 0.625000 0.875000
vt 0.750000 0.750000
vt 0.875000 0.750000
vt 0.000000 0.000000
vt 0.625000 0.750000
vt 0.625000 0.875000
vt 0.750000 0.750000
vt 0.875000 0.750000
vt 0.000000 0.000000
vt 0.000000 0.000000
vt 0.625000 0.750000
vt 0.625000 0.875000
vt 0.750000 0.750000
vt 0.875000 0.750000
vt 0.625000 0.750000
vt 0.625000 0.875000
vt 0.750000 0.750000
vt 0.875000 0.750000
s 0
usemtl Material
f 24/39/1 21/36/1 7/12/1 14/25/1
f 15/27/2 14/24/2 7/10/2 8/13/2
f 9/16/3 11/19/3 5/6/3 6/9/3
f 23/38/4 22/37/4 4/5/4 15/26/4
f 20/34/5 3/4/5 37/52/5 39/54/5
f 13/23/6 16/29/6 1/1/6 2/3/6
f 10/18/5 12/21/5 57/72/5 56/71/5
f 13/22/4 2/3/4 12/21/4 17/30/4
f 19/33/3 21/35/3 11/19/3 9/16/3
f 16/28/1 5/7/1 11/20/1 18/31/1
f 1/1/7 16/28/7 18/31/7 10/18/7
f 6/8/4 13/22/4 17/30/4 9/17/4
f 6/9/6 5/6/6 16/29/6 13/23/6
f 19/32/4 23/38/4 15/26/4 8/14/4
f 4/5/2 3/4/2 14/24/2 15/27/2
f 20/34/7 24/39/7 14/25/7 3/4/7
f 10/18/7 18/31/7 24/39/7 20/34/7
f 9/17/4 17/30/4 23/38/4 19/32/4
f 8/15/3 7/11/3 21/35/3 19/33/3
f 20/34/5 22/37/5 28/43/5 27/42/5
f 17/30/4 12/21/4 22/37/4 23/38/4
f 18/31/1 11/20/1 21/36/1 24/39/1
f 26/41/5 25/40/5 29/44/5 30/45/5
f 22/37/5 12/21/5 26/41/5 28/43/5
f 10/18/5 20/34/5 27/42/5 25/40/5
f 12/21/5 10/18/5 25/40/5 26/41/5
f 30/45/2 29/44/2 33/48/2 34/49/2
f 25/40/5 27/42/5 31/46/5 29/44/5
f 28/43/5 26/41/5 30/45/5 32/47/5
f 27/42/5 28/43/5 32/47/5 31/46/5
f 34/49/5 33/48/5 35/50/5 36/51/5
f 29/44/4 31/46/4 35/50/4 33/48/4
f 32/47/8 30/45/8 34/49/8 36/51/8
f 31/46/6 32/47/6 36/51/6 35/50/6
f 40/55/5 39/54/5 43/58/5 44/59/5
f 22/37/5 20/34/5 39/54/5 40/55/5
f 3/4/5 4/5/5 38/53/5 37/52/5
f 4/5/5 22/37/5 40/55/5 38/53/5
f 42/57/8 44/59/8 48/63/8 51/66/8 46/61/8
f 39/54/5 37/52/5 41/56/5 43/58/5
f 38/53/5 40/55/5 44/59/5 42/57/5
f 37/52/5 38/53/5 42/57/5 41/56/5
f 53/68/5 50/65/5 45/60/5 49/64/5
f 41/56/6 42/57/6 46/61/6 49/64/6 45/60/6
f 44/59/2 43/58/2 47/62/2 52/67/2 48/63/2
f 43/58/4 41/56/4 45/60/4 50/65/4 47/62/4
f 51/66/5 53/68/5 49/64/5 46/61/5
f 48/63/5 52/67/5 53/68/5 51/66/5
f 52/67/5 47/62/5 50/65/5 53/68/5
f 57/72/5 55/70/5 59/74/5 61/76/5
f 2/3/5 1/1/5 54/69/5 55/70/5
f 1/1/5 10/18/5 56/71/5 54/69/5
f 12/21/5 2/3/5 55/70/5 57/72/5
f 58/73/4 60/75/4 64/79/4 62/77/4
f 54/69/5 56/71/5 60/75/5 58/73/5
f 55/70/5 54/69/5 58/73/5 59/74/5
f 56/71/5 57/72/5 61/76/5 60/75/5
f 63/78/5 62/77/5 64/79/5 65/80/5
f 59/74/2 58/73/2 62/77/2 63/78/2
f 60/75/6 61/76/6 65/80/6 64/79/6
f 61/76/8 59/74/8 63/78/8 65/80/8
f 3/4/6 14/24/6 68/84/6 66/81/6
f 7/12/2 14/25/2 68/83/2 67/82/2
f 66/81/7 68/84/7 71/87/7 69/85/7
f 67/82/9 68/83/9 71/88/9 70/86/9
f 82/103/7 81/102/7 72/89/7 74/92/7
f 82/104/9 83/105/9 73/91/9 74/93/9
f 16/28/6 5/7/6 76/95/6 77/96/6
f 16/29/2 1/1/2 75/94/2 77/97/2
f 77/96/9 76/95/9 79/99/9 80/100/9
f 77/97/7 75/94/7 78/98/7 80/101/7
f 68/83/9 67/82/9 83/105/9 82/104/9
f 68/84/7 66/81/7 81/102/7 82/103/7
f 82/103/2 81/102/2 84/106/2 85/107/2
f 82/104/10 83/105/10 86/109/10 85/108/10
f 85/107/11 84/106/11 87/111/11 88/112/11
f 85/108/12 86/109/12 89/114/12 88/113/12
f 84/106/11 85/107/11 91/117/11 90/116/11
f 86/109/12 85/108/12 91/118/12 92/119/12
f 93/120/5 94/121/5 90/115/5 87/110/5
f 88/112/6 87/111/6 95/122/6 96/123/6
f 88/113/13 89/114/13 97/125/13 96/124/13
f 90/116/2 91/117/2 99/127/2 98/126/2
f 92/119/14 91/118/14 99/128/14 100/129/14
f 1/2/3 3/4/3 66/81/3 72/90/3
f 67/82/3 76/95/3 5/7/3 7/12/3
